<?xml version="1.0" standalone="no"?><!DOCTYPE svg PUBLIC "-//W3C//DTD SVG 1.1//EN" "http://www.w3.org/Graphics/SVG/1.1/DTD/svg11.dtd"><svg t="1691029526436" class="icon" viewBox="0 0 1024 1024" version="1.1" xmlns="http://www.w3.org/2000/svg" p-id="1811" xmlns:xlink="http://www.w3.org/1999/xlink" width="200" height="200"><path d="M674.5 908.2h-321c-92.9 0-168.5-75.6-168.5-168.5v-453c0-92.9 75.6-168.5 168.5-168.5h321c92.9 0 168.5 75.6 168.5 168.5v453c0 92.9-75.6 168.5-168.5 168.5z m-321-693.9c-39.9 0-72.4 32.5-72.4 72.4v453c0 39.9 32.5 72.4 72.4 72.4h321c39.9 0 72.4-32.5 72.4-72.4v-453c0-39.9-32.5-72.4-72.4-72.4h-321z" fill="#1296db" p-id="1812"></path><path d="M644.9 579.8H377.8c-32.5 0-58.8-26.3-58.8-58.8s26.3-58.8 58.8-58.8h267.1c32.5 0 58.8 26.3 58.8 58.8s-26.4 58.8-58.8 58.8zM475.7 395.1h-97.9c-32.5 0-58.8-26.3-58.8-58.8s26.3-58.8 58.8-58.8h97.9c32.5 0 58.8 26.3 58.8 58.8s-26.3 58.8-58.8 58.8zM644.9 395.1h-19.6c-32.5 0-58.8-26.3-58.8-58.8s26.3-58.8 58.8-58.8h19.6c32.5 0 58.8 26.3 58.8 58.8s-26.4 58.8-58.8 58.8zM644.9 764.5H377.8c-32.5 0-58.8-26.3-58.8-58.8s26.3-58.8 58.8-58.8h267.1c32.5 0 58.8 26.3 58.8 58.8s-26.4 58.8-58.8 58.8z" fill="#1296db" p-id="1813"></path></svg>